<?xml version="1.0" encoding="UTF-8" standalone="no"?>
<svg
   xmlns:dc="http://purl.org/dc/elements/1.1/"
   xmlns:cc="http://creativecommons.org/ns#"
   xmlns:rdf="http://www.w3.org/1999/02/22-rdf-syntax-ns#"
   xmlns:svg="http://www.w3.org/2000/svg"
   xmlns="http://www.w3.org/2000/svg"
   xmlns:xlink="http://www.w3.org/1999/xlink"
   xmlns:sodipodi="http://sodipodi.sourceforge.net/DTD/sodipodi-0.dtd"
   xmlns:inkscape="http://www.inkscape.org/namespaces/inkscape"
   version="1.1"
   x="0px"
   y="0px"
   viewBox="0 0 64 64"
   enable-background="new 0 0 100 100"
   xml:space="preserve"
   id="svg2985"
   inkscape:version="0.48.4 r9943 custom"
   width="100%"
   height="100%"
   sodipodi:docname="icon.svg"><metadata
     id="metadata2997"><rdf:RDF><cc:Work
         rdf:about=""><dc:format>image/svg+xml</dc:format><dc:type
           rdf:resource="http://purl.org/dc/dcmitype/StillImage" /><dc:title></dc:title></cc:Work></rdf:RDF></metadata><defs
     id="defs2995"><linearGradient
       id="linearGradient4378"><stop
         style="stop-color:#1d2947;stop-opacity:1;"
         offset="0"
         id="stop4380" /><stop
         style="stop-color:#1d2948;stop-opacity:0;"
         offset="1"
         id="stop4382" /></linearGradient><linearGradient
       id="linearGradient3996"><stop
         style="stop-color:#ffffff;stop-opacity:1;"
         offset="0"
         id="stop3998" /><stop
         style="stop-color:#d0d0d0;stop-opacity:1;"
         offset="1"
         id="stop4000" /></linearGradient><linearGradient
       id="linearGradient3783"><stop
         style="stop-color:#41477d;stop-opacity:1;"
         offset="0"
         id="stop3785" /><stop
         style="stop-color:#1e213a;stop-opacity:1;"
         offset="1"
         id="stop3787" /></linearGradient><linearGradient
       inkscape:collect="always"
       xlink:href="#linearGradient4378"
       id="linearGradient4384"
       x1="33.165661"
       y1="34.267262"
       x2="50"
       y2="51.142262"
       gradientUnits="userSpaceOnUse"
       gradientTransform="translate(0.200341,0)" /><filter
       inkscape:collect="always"
       id="filter4388"><feGaussianBlur
         inkscape:collect="always"
         stdDeviation="0.23250624"
         id="feGaussianBlur4390" /></filter></defs><sodipodi:namedview
     pagecolor="#e5e5e5"
     bordercolor="#666666"
     borderopacity="1"
     objecttolerance="10"
     gridtolerance="10"
     guidetolerance="10"
     inkscape:pageopacity="0"
     inkscape:pageshadow="2"
     inkscape:window-width="1280"
     inkscape:window-height="710"
     id="namedview2993"
     showgrid="false"
     fit-margin-top="0"
     fit-margin-left="0"
     fit-margin-right="0"
     fit-margin-bottom="0"
     inkscape:showpageshadow="false"
     showborder="true"
     borderlayer="true"
     inkscape:snap-grids="true"
     inkscape:zoom="8"
     inkscape:cx="32.748996"
     inkscape:cy="27.908081"
     inkscape:window-x="0"
     inkscape:window-y="23"
     inkscape:window-maximized="0"
     inkscape:current-layer="svg2985"><inkscape:grid
       type="xygrid"
       id="grid4317"
       empspacing="5"
       visible="true"
       enabled="true"
       snapvisiblegridlinesonly="true" /></sodipodi:namedview><path
     sodipodi:type="star"
     style="color:#000000;fill:#000000;fill-opacity:0.19831224;fill-rule:nonzero;stroke:none;stroke-width:1.30545044000000021;marker:none;visibility:visible;display:inline;overflow:visible;enable-background:accumulate;filter:url(#filter4388)"
     id="path3795-5"
     sodipodi:sides="18"
     sodipodi:cx="-18.625"
     sodipodi:cy="10.5"
     sodipodi:r1="23.388699"
     sodipodi:r2="21.985376"
     sodipodi:arg1="0.71732171"
     sodipodi:arg2="0.89185464"
     inkscape:flatsided="false"
     inkscape:rounded="0.21"
     inkscape:randomized="0"
     d="m -1.0000005,25.875 c -0.5790314,0.663767 -3.1333515,1.181714 -3.8188481,1.73485 -0.6854965,0.553135 -1.7314957,2.940331 -2.5026291,3.366029 -0.7711333,0.425697 -3.3485573,0.03878 -4.1818973,0.324102 -0.833339,0.285324 -2.632726,2.170802 -3.502951,2.307083 -0.870226,0.136282 -3.159878,-1.108834 -4.040548,-1.125736 -0.880669,-0.0169 -3.216411,1.139441 -4.080767,0.969869 -0.864355,-0.169572 -2.59007,-2.122705 -3.411848,-2.439794 -0.821778,-0.31709 -3.41215,-0.02935 -4.166381,-0.484326 -0.754231,-0.454973 -1.707862,-2.880546 -2.37163,-3.459578 -0.663767,-0.579031 -3.196332,-1.194607 -3.749468,-1.880104 -0.553136,-0.685496 -0.619661,-3.290951 -1.045358,-4.062084 -0.425697,-0.771134 -2.59499,-2.215774 -2.880314,-3.049114 -0.285324,-0.833339 0.543281,-3.304419 0.407,-4.174644 -0.136282,-0.870225 -1.680654,-2.969685 -1.663752,-3.850355 0.0169,-0.8806695 1.640695,-2.9193249 1.810267,-3.7836802 0.169572,-0.8643552 -0.563606,-3.3654088 -0.246517,-4.1871867 0.31709,-0.8217779 2.540218,-2.18211746 2.99519,-2.93634869 0.454973,-0.75423121 0.621421,-3.35521451 1.200453,-4.01898211 0.579031,-0.6637676 3.133351,-1.1817142 3.818848,-1.73485 0.685496,-0.5531357 1.731495,-2.9403318 2.502629,-3.3660289 0.771133,-0.4256974 3.348557,-0.038778 4.181897,-0.3241024 0.833339,-0.285324 2.632726,-2.170802 3.502951,-2.307083 0.870226,-0.136282 3.159878,1.108834 4.040548,1.125736 0.880669,0.0169 3.216411,-1.139441 4.080767,-0.969869 0.864355,0.169572 2.59007,2.122705 3.411848,2.439794 0.8217776,0.3170898 3.4121497,0.029354 4.1663809,0.4843262 0.7542312,0.4549725 1.7078621,2.8805463 2.3716297,3.4595776 0.6637676,0.5790313 3.19633259,1.1946072 3.74946833,1.8801038 0.55313575,0.6854965 0.61966057,3.29095127 1.04535772,4.06208464 C 1.0480228,0.64582257 3.2173161,2.090463 3.50264,2.9238026 3.787964,3.7571422 2.9593589,6.2282216 3.0956402,7.098447 c 0.1362813,0.8702253 1.6806541,2.969685 1.663752,3.850355 -0.016902,0.880669 -1.6406952,2.919325 -1.8102672,3.78368 -0.1695721,0.864355 0.5636061,3.365409 0.2465165,4.187187 -0.3170895,0.821778 -2.54021712,2.182117 -2.99518963,2.936349 -0.45497249,0.754231 -0.6214211,3.355214 -1.20045237,4.018982 z"
     inkscape:transform-center-x="-0.58403286"
     inkscape:transform-center-y="0.074228466"
     transform="matrix(0.99012249,0,0,1.00156,51.380371,23.185523)"
     inkscape:export-filename="/Users/sascha/Entwicklung/brewy/icon.png"
     inkscape:export-xdpi="886"
     inkscape:export-ydpi="886" /><path
     sodipodi:type="star"
     style="opacity:1;color:#000000;fill:#48577a;fill-opacity:1;fill-rule:nonzero;stroke:#19243f;stroke-width:1.30545047999999997;stroke-miterlimit:4;stroke-opacity:1;stroke-dasharray:none;marker:none;visibility:visible;display:inline;overflow:visible;enable-background:accumulate"
     id="path3795"
     sodipodi:sides="18"
     sodipodi:cx="-18.625"
     sodipodi:cy="10.5"
     sodipodi:r1="23.388699"
     sodipodi:r2="21.985376"
     sodipodi:arg1="0.71732171"
     sodipodi:arg2="0.89185464"
     inkscape:flatsided="false"
     inkscape:rounded="0.21"
     inkscape:randomized="0"
     d="m -1.0000005,25.875 c -0.5790314,0.663767 -3.1333515,1.181714 -3.8188481,1.73485 -0.6854965,0.553135 -1.7314957,2.940331 -2.5026291,3.366029 -0.7711333,0.425697 -3.3485573,0.03878 -4.1818973,0.324102 -0.833339,0.285324 -2.632726,2.170802 -3.502951,2.307083 -0.870226,0.136282 -3.159878,-1.108834 -4.040548,-1.125736 -0.880669,-0.0169 -3.216411,1.139441 -4.080767,0.969869 -0.864355,-0.169572 -2.59007,-2.122705 -3.411848,-2.439794 -0.821778,-0.31709 -3.41215,-0.02935 -4.166381,-0.484326 -0.754231,-0.454973 -1.707862,-2.880546 -2.37163,-3.459578 -0.663767,-0.579031 -3.196332,-1.194607 -3.749468,-1.880104 -0.553136,-0.685496 -0.619661,-3.290951 -1.045358,-4.062084 -0.425697,-0.771134 -2.59499,-2.215774 -2.880314,-3.049114 -0.285324,-0.833339 0.543281,-3.304419 0.407,-4.174644 -0.136282,-0.870225 -1.680654,-2.969685 -1.663752,-3.850355 0.0169,-0.8806695 1.640695,-2.9193249 1.810267,-3.7836802 0.169572,-0.8643552 -0.563606,-3.3654088 -0.246517,-4.1871867 0.31709,-0.8217779 2.540218,-2.18211746 2.99519,-2.93634869 0.454973,-0.75423121 0.621421,-3.35521451 1.200453,-4.01898211 0.579031,-0.6637676 3.133351,-1.1817142 3.818848,-1.73485 0.685496,-0.5531357 1.731495,-2.9403318 2.502629,-3.3660289 0.771133,-0.4256974 3.348557,-0.038778 4.181897,-0.3241024 0.833339,-0.285324 2.632726,-2.170802 3.502951,-2.307083 0.870226,-0.136282 3.159878,1.108834 4.040548,1.125736 0.880669,0.0169 3.216411,-1.139441 4.080767,-0.969869 0.864355,0.169572 2.59007,2.122705 3.411848,2.439794 0.8217776,0.3170898 3.4121497,0.029354 4.1663809,0.4843262 0.7542312,0.4549725 1.7078621,2.8805463 2.3716297,3.4595776 0.6637676,0.5790313 3.19633259,1.1946072 3.74946833,1.8801038 0.55313575,0.6854965 0.61966057,3.29095127 1.04535772,4.06208464 C 1.0480228,0.64582257 3.2173161,2.090463 3.50264,2.9238026 3.787964,3.7571422 2.9593589,6.2282216 3.0956402,7.098447 c 0.1362813,0.8702253 1.6806541,2.969685 1.663752,3.850355 -0.016902,0.880669 -1.6406952,2.919325 -1.8102672,3.78368 -0.1695721,0.864355 0.5636061,3.365409 0.2465165,4.187187 -0.3170895,0.821778 -2.54021712,2.182117 -2.99518963,2.936349 -0.45497249,0.754231 -0.6214211,3.355214 -1.20045237,4.018982 z"
     inkscape:transform-center-x="-0.58403286"
     inkscape:transform-center-y="0.074228466"
     transform="matrix(0.99012249,0,0,1.00156,50.441031,21.48362)"
     inkscape:export-filename="/Users/sascha/Entwicklung/brewy/icon.png"
     inkscape:export-xdpi="886"
     inkscape:export-ydpi="886" /><path
     sodipodi:type="star"
     style="color:#000000;fill:#8d99b6;fill-opacity:1;fill-rule:nonzero;stroke:none;stroke-width:1.30545044000000021;marker:none;visibility:visible;display:inline;overflow:visible;enable-background:accumulate"
     id="path3795-9-2"
     sodipodi:sides="18"
     sodipodi:cx="-18.625"
     sodipodi:cy="10.5"
     sodipodi:r1="23.388699"
     sodipodi:r2="18.944845"
     sodipodi:arg1="0.71732171"
     sodipodi:arg2="0.89185464"
     inkscape:flatsided="false"
     inkscape:rounded="0.41"
     inkscape:randomized="0"
     d="m -1.0000005,25.875 c -1.5532247,1.780525 -3.8893969,-2.115167 -5.7282097,-0.631406 -1.8388127,1.483761 1.475262,4.590372 -0.5932675,5.732285 -2.0685294,1.141912 -2.9314073,-3.317859 -5.1668023,-2.552491 -2.235395,0.765368 -0.183707,4.818108 -2.518046,5.183676 -2.334339,0.365569 -1.619848,-4.120368 -3.982204,-4.165707 -2.362355,-0.04534 -1.820518,4.464709 -4.139111,4.00984 -2.318592,-0.454869 -0.11291,-4.4259 -2.317291,-5.276478 -2.204381,-0.850578 -3.237748,3.5728 -5.260938,2.352358 -2.02319,-1.220443 1.407646,-4.197603 -0.372879,-5.750828 -1.780526,-1.553225 -4.264458,2.249959 -5.748219,0.411146 -1.483761,-1.838812 2.75842,-3.463013 1.616507,-5.531542 -1.141913,-2.06853 -4.776811,0.655739 -5.542179,-1.579656 -0.765368,-2.235394 3.776487,-2.310733 3.410919,-4.645072 -0.365569,-2.334339 -4.71301,-1.017571 -4.667671,-3.379927 0.04534,-2.3623553 4.339054,-0.8797439 4.793923,-3.1983368 0.454869,-2.3185929 -4.080751,-2.5681491 -3.230173,-4.7725301 0.850579,-2.2043811 4.378268,0.6573548 5.59871,-1.36583542 1.220443,-2.02319018 -2.956292,-3.80896958 -1.403067,-5.58949538 1.553224,-1.7805258 3.889396,2.1151671 5.728209,0.6314061 1.838813,-1.4837609 -1.475262,-4.5903722 0.593268,-5.732285 2.068529,-1.1419124 2.931407,3.317859 5.166802,2.5524908 2.235395,-0.7653683 0.183707,-4.8181082 2.518046,-5.1836762 2.334339,-0.365569 1.619848,4.1203678 3.982204,4.165707 2.362355,0.045339 1.820518,-4.464709 4.139111,-4.00984 2.318592,0.454869 0.11291,4.4258999 2.317291,5.276478 2.2043807,0.850578 3.2377476,-3.5728 5.2609379,-2.3523578 2.0231902,1.2204426 -1.4076463,4.1976031 0.3728795,5.7508278 1.7805258,1.5532246 4.2644576,-2.2499592 5.74821853,-0.4111464 1.48376097,1.8388127 -2.75841963,3.46301324 -1.61650683,5.5315427 1.14191286,2.0685294 4.7768107,-0.65573962 5.5421789,1.5796553 0.7653683,2.2353949 -3.77648685,2.3107329 -3.41091851,4.645072 0.36556833,2.334339 4.71300991,1.0175718 4.66767071,3.3799274 -0.045339,2.362355 -4.33905408,0.879744 -4.79392319,3.198337 -0.4548691,2.318593 4.08075059,2.568149 3.23017249,4.77253 -0.850578,2.204381 -4.3782673,-0.657355 -5.5987099,1.365835 -1.2204426,2.023191 2.9562925,3.80897 1.4030679,5.589496 z"
     inkscape:transform-center-x="-0.38393586"
     inkscape:transform-center-y="0.42815062"
     transform="matrix(0.73153329,0.6337282,-0.64177852,0.73322415,52.24702,36.135144)"
     inkscape:export-filename="/Users/sascha/Entwicklung/brewy/icon.png"
     inkscape:export-xdpi="886"
     inkscape:export-ydpi="886" /><path
     sodipodi:type="star"
     style="color:#000000;fill:#19243f;fill-opacity:1;fill-rule:nonzero;stroke:none;stroke-width:1.30545044;marker:none;visibility:visible;display:inline;overflow:visible;enable-background:accumulate"
     id="path3795-9"
     sodipodi:sides="18"
     sodipodi:cx="-18.625"
     sodipodi:cy="10.5"
     sodipodi:r1="23.388699"
     sodipodi:r2="18.477072"
     sodipodi:arg1="0.71732171"
     sodipodi:arg2="0.89185464"
     inkscape:flatsided="false"
     inkscape:rounded="0.21"
     inkscape:randomized="0"
     d="m -1.0000005,25.875 c -0.8425971,0.965904 -5.0244337,-1.80036 -6.0219572,-0.995445 -0.9975236,0.804914 0.8226209,5.476856 -0.29952,6.096324 -1.1221408,0.619467 -4.1056643,-3.410242 -5.3183263,-2.995043 -1.212663,0.415198 -1.100185,5.427914 -2.366522,5.626228 -1.266338,0.198315 -2.691691,-4.608799 -3.973228,-4.633394 -1.281536,-0.0246 -2.890291,4.724286 -4.148087,4.477527 -1.257795,-0.246758 -0.95306,-5.251467 -2.148897,-5.71289 -1.195838,-0.461424 -4.331787,3.450838 -5.429332,2.78877 -1.097545,-0.662069 0.900524,-5.260731 -0.06538,-6.103328 -0.965904,-0.842597 -5.250804,1.76117 -6.055718,0.763646 -0.804914,-0.997523 2.645492,-4.635472 2.026024,-5.757612 -0.619468,-1.122141 -5.536497,-0.140923 -5.951696,-1.353586 -0.415199,-1.212662 4.071374,-3.451107 3.873059,-4.717445 -0.198314,-1.266338 -5.154407,-2.026018 -5.129811,-3.307554 0.0246,-1.2815361 5.006188,-1.8504883 5.252946,-3.1082841 0.246759,-1.2577959 -4.150619,-3.6667449 -3.689196,-4.8625828 0.461424,-1.19583796 5.337183,-0.026673 5.999251,-1.1242183 0.662069,-1.09754509 -2.646205,-4.8652086 -1.803608,-5.8311125 0.842597,-0.9659039 5.024433,1.8003593 6.021957,0.9954451 0.997523,-0.8049142 -0.822621,-5.4768564 0.29952,-6.096324 1.12214,-0.6194674 4.105664,3.4102419 5.318326,2.9950431 1.212663,-0.4151989 1.100185,-5.4279145 2.366522,-5.6262285 1.266338,-0.198315 2.691691,4.6087986 3.973228,4.6333943 1.281536,0.024596 2.890291,-4.7242863 4.148087,-4.4775273 1.257795,0.246758 0.95306,5.2514667 2.148897,5.7128903 1.195838,0.4614237 4.3317868,-3.4508383 5.4293319,-2.7887701 1.0975451,0.6620687 -0.9005241,5.2607303 0.06538,6.1033274 0.9659039,0.842597 5.250804,-1.7611696 6.05571823,-0.763646 0.80491422,0.9975235 -2.64549153,4.63547205 -2.02602393,5.7576129 0.6194676,1.1221408 5.5364972,0.1409227 5.951696,1.3535851 0.4151988,1.2126624 -4.07137366,3.4511075 -3.87305927,4.7174454 0.19831439,1.2663378 5.15440717,2.0260175 5.12981147,3.307554 -0.024596,1.281536 -5.00618812,1.850488 -5.25294661,3.108284 -0.24675848,1.257796 4.15061961,3.666745 3.68919591,4.862583 -0.4614236,1.195838 -5.3371823,0.02667 -5.999251,1.124218 -0.6620686,1.097545 2.646206,4.865209 1.803609,5.831113 z"
     inkscape:transform-center-x="-0.49467207"
     inkscape:transform-center-y="0.30656373"
     transform="matrix(0.890729,0.40731332,-0.4146503,0.89466148,52.937785,30.201946)"
     inkscape:export-filename="/Users/sascha/Entwicklung/brewy/icon.png"
     inkscape:export-xdpi="886"
     inkscape:export-ydpi="886" /><path
     sodipodi:type="arc"
     style="color:#000000;fill:#223156;fill-opacity:1;fill-rule:nonzero;stroke:#19243f;stroke-width:1.91726302999999998;stroke-miterlimit:4;stroke-opacity:1;stroke-dasharray:none;marker:none;visibility:visible;display:inline;overflow:visible;enable-background:accumulate"
     id="path3793"
     sodipodi:cx="30.5625"
     sodipodi:cy="27.875"
     sodipodi:rx="17.0625"
     sodipodi:ry="19.5"
     d="m 47.625,27.875 a 17.0625,19.5 0 1 1 -34.125,0 17.0625,19.5 0 1 1 34.125,0 z"
     transform="matrix(1.1151782,0,0,0.97578091,-2.0826351,4.8001072)"
     inkscape:export-filename="/Users/sascha/Entwicklung/brewy/icon.png"
     inkscape:export-xdpi="886"
     inkscape:export-ydpi="886" /><path
     style="color:#000000;fill:url(#linearGradient4384);fill-opacity:1;fill-rule:nonzero;stroke:none;stroke-width:2;marker:none;visibility:visible;display:inline;overflow:visible;enable-background:accumulate"
     d="M 26.866,38.185078 37.858341,49.178 C 43.407243,47.078648 47.16991,43.356838 49.200341,38 L 36.306982,25.103602 30.340768,23.606525 29.103331,24.93235 27.865894,24.84396 27.158787,26.700115 z"
     id="path4345"
     inkscape:connector-curvature="0"
     sodipodi:nodetypes="ccccccccc"
     inkscape:export-filename="/Users/sascha/Entwicklung/brewy/icon.png"
     inkscape:export-xdpi="886"
     inkscape:export-ydpi="886" /><text
     xml:space="preserve"
     style="font-size:8.89216518px;font-style:normal;font-weight:normal;line-height:125%;letter-spacing:0px;word-spacing:0px;fill:#ffffff;fill-opacity:1;stroke:none;font-family:Sans"
     id="text3955"
     sodipodi:linespacing="125%"
     inkscape:export-filename="/Users/sascha/Entwicklung/brewy/icon.png"
     inkscape:export-xdpi="886"
     inkscape:export-ydpi="886"><textPath
       xlink:href="#path3793-0-2-1"
       id="textPath4027"
       style="font-size:6px;font-style:normal;font-variant:normal;font-weight:800;font-stretch:normal;text-align:start;line-height:125%;letter-spacing:3.5999999px;writing-mode:lr-tb;text-anchor:start;fill:#ffffff;fill-opacity:1;font-family:Alegreya Sans;-inkscape-font-specification:Alegreya Sans Ultra-Bold"><tspan
         id="tspan3959"
         style="font-size:6px;font-style:normal;font-variant:normal;font-weight:800;font-stretch:normal;text-align:start;line-height:125%;letter-spacing:3.5999999px;writing-mode:lr-tb;text-anchor:start;fill:#ffffff;fill-opacity:1;font-family:Alegreya Sans;-inkscape-font-specification:Alegreya Sans Ultra-Bold"
         y="37.392879"
         x="-5.9219475">BRE<tspan
   style="letter-spacing:3.8px"
   id="tspan4364">WY</tspan></tspan></textPath></text>
<path
     sodipodi:type="arc"
     style="color:#000000;fill:none;stroke:#f9a825;stroke-width:1.29867828;stroke-linecap:butt;stroke-linejoin:miter;stroke-miterlimit:4;stroke-opacity:1;stroke-dasharray:none;stroke-dashoffset:0;marker:none;visibility:visible;display:inline;overflow:visible;enable-background:accumulate"
     id="path3793-0-2"
     sodipodi:cx="30.5625"
     sodipodi:cy="27.875"
     sodipodi:rx="17.0625"
     sodipodi:ry="19.5"
     d="m 14.228035,33.510359 a 17.0625,19.5 0 1 1 32.667544,0.0052"
     transform="matrix(0.82317925,0,0,0.7202818,6.8415846,11.922144)"
     sodipodi:start="2.8484181"
     sodipodi:end="6.5766408"
     sodipodi:open="true"
     inkscape:export-filename="/Users/sascha/Entwicklung/brewy/icon.png"
     inkscape:export-xdpi="886"
     inkscape:export-ydpi="886" /><path
     style="fill:#f9a825;fill-opacity:1;stroke:none"
     id="path4257"
     d="m 29.103021,36.344953 5.309893,0 c 0.156825,0 0.284103,-0.127277 0.284103,-0.284101 l 0,-6.623253 c 0,-0.156825 -0.127278,-0.284104 -0.284103,-0.284104 l -4.352462,0 0,2.321692 c 0,0.156826 -0.127279,0.284104 -0.284104,0.284104 -0.156825,0 -0.284103,-0.127278 -0.284103,-0.284104 l 0,-2.321692 -0.389224,0 c -0.156823,0 -0.284102,0.127279 -0.284102,0.284104 l 0,6.623821 c 0,0.156825 0.127279,0.283533 0.284102,0.283533 z"
     inkscape:connector-curvature="0"
     sodipodi:nodetypes="ssssscssscssss"
     inkscape:export-filename="/Users/sascha/Entwicklung/brewy/icon.png"
     inkscape:export-xdpi="886"
     inkscape:export-ydpi="886" /><path
     sodipodi:type="inkscape:offset"
     inkscape:radius="-0.10291164"
     inkscape:original="M 16.875 8.09375 C 15.516033 8.09375 14.361574 8.9069312 13.8125 10.09375 C 13.766116 10.089334 13.741137 10.09375 13.6875 10.09375 C 12.795488 10.09375 12.027433 10.453251 11.5 11.0625 C 10.972567 11.671749 10.6875 12.508276 10.6875 13.5 C 10.6875 13.569529 10.68757 13.647108 10.6875 13.71875 C 10.697227 13.695887 10.701121 13.664868 10.6875 13.75 C 10.687388 13.770225 10.687864 13.79301 10.6875 13.8125 C 10.677363 13.839367 10.65625 13.829758 10.65625 13.90625 L 10.65625 31.03125 C 10.65625 31.510459 11.052041 31.90625 11.53125 31.90625 L 25.4375 31.90625 C 25.916709 31.90625 26.3125 31.510459 26.3125 31.03125 L 26.3125 27.40625 L 27.5625 27.40625 C 28.586107 27.40625 29.34375 26.453385 29.34375 25.34375 L 29.34375 19.5 C 29.346119 18.400704 28.582874 17.4375 27.5625 17.4375 L 26.3125 17.4375 L 26.3125 13.90625 A 0.37561042 0.37561042 0 0 0 26.3125 13.78125 L 26.3125 13.125 C 26.3125 11.817711 25.213641 10.805695 23.9375 10.8125 C 23.481833 9.7270121 22.444621 8.96875 21.21875 8.96875 C 20.627089 8.96875 20.077507 9.1848794 19.59375 9.5 C 18.963023 8.6455507 17.983284 8.09375 16.875 8.09375 z M 16.875 9.84375 C 17.659388 9.84375 18.335803 10.397044 18.5 11.15625 C 18.573841 11.492635 18.834293 11.790148 19.21875 11.84375 A 0.37561042 0.37561042 0 0 0 19.25 11.84375 C 19.632133 11.890837 19.980138 11.707656 20.15625 11.375 C 20.373524 10.964507 20.753756 10.71875 21.21875 10.71875 C 21.858357 10.71875 22.389698 11.230448 22.4375 11.875 C 22.458684 12.168047 22.649789 12.401441 22.875 12.53125 C 23.106068 12.661923 23.405656 12.733726 23.6875 12.59375 C 23.754883 12.561344 23.872772 12.53125 23.96875 12.53125 C 24.280196 12.53125 24.486172 12.740961 24.53125 13.03125 L 12.5 13.03125 C 12.557733 12.690248 12.662905 12.398467 12.8125 12.21875 C 13.017988 11.971886 13.274378 11.84375 13.6875 11.84375 C 13.801636 11.84375 13.917143 11.858389 14.0625 11.90625 C 14.340591 11.99628 14.599162 11.938796 14.8125 11.8125 C 15.04144 11.674028 15.180757 11.445127 15.21875 11.21875 C 15.356827 10.413166 16.050643 9.84375 16.875 9.84375 z M 12.40625 14.78125 L 24.5625 14.78125 L 24.5625 30.15625 L 12.40625 30.15625 L 12.40625 14.78125 z M 26.3125 19.1875 L 27.5625 19.1875 C 27.465625 19.1875 27.49651 19.163915 27.53125 19.21875 C 27.56599 19.273585 27.59375 19.371394 27.59375 19.5 L 27.59375 25.34375 C 27.59375 25.472 27.565953 25.570079 27.53125 25.625 C 27.496547 25.679921 27.466475 25.65625 27.5625 25.65625 L 26.3125 25.65625 L 26.3125 19.1875 z "
     style="fill:#ffffff;fill-opacity:1"
     id="path4319"
     d="m 16.875,8.1875 c -1.317913,0 -2.435236,0.7843135 -2.96875,1.9375 a 0.10292193,0.10292193 0 0 1 0,0.03125 0.10292193,0.10292193 0 0 1 -0.03125,0 0.10292193,0.10292193 0 0 1 0,0.03125 0.10292193,0.10292193 0 0 1 -0.03125,0 0.10292193,0.10292193 0 0 1 -0.03125,0 c -0.03647,-0.0035 -0.06571,0 -0.125,0 -0.864362,0 -1.616814,0.350483 -2.125,0.9375 -0.508933,0.587879 -0.78125,1.402997 -0.78125,2.375 0,0.03969 -7e-6,0.08259 0,0.125 0,0 0,0.03125 0,0.03125 -10e-7,0.01057 5e-6,0.0208 0,0.03125 0.0096,8.59e-4 0.0313,-6.33e-4 0.03125,0 -3.69e-4,0.0051 2.66e-4,0.02932 0,0.03125 -5.31e-4,0.0039 -0.03051,-0.0046 -0.03125,0 -7.35e-4,0.0046 0.0012,0.02404 0,0.03125 -0.0012,0.0072 0.0017,0.02071 0,0.03125 6.1e-5,0.01086 2.12e-4,0.01992 0,0.03125 a 0.10292193,0.10292193 0 0 1 0,0.03125 c -0.0074,0.01965 -0.02473,0.05471 -0.03125,0.0625 l 0,17.125 c 0,0.422544 0.358706,0.78125 0.78125,0.78125 l 13.90625,0 c 0.422544,0 0.78125,-0.358706 0.78125,-0.78125 l 0,-3.625 a 0.10292193,0.10292193 0 0 1 0,-0.03125 0.10292193,0.10292193 0 0 1 0,-0.03125 0.10292193,0.10292193 0 0 1 0.03125,-0.03125 0.10292193,0.10292193 0 0 1 0.03125,0 0.10292193,0.10292193 0 0 1 0.03125,0 l 1.25,0 c 0.959741,0 1.6875,-0.905959 1.6875,-1.96875 l 0,-5.84375 c 0.0023,-1.051532 -0.73189,-1.96875 -1.6875,-1.96875 l -1.25,0 a 0.10292193,0.10292193 0 0 1 -0.03125,0 0.10292193,0.10292193 0 0 1 -0.03125,0 0.10292193,0.10292193 0 0 1 -0.03125,-0.03125 0.10292193,0.10292193 0 0 1 0,-0.03125 0.10292193,0.10292193 0 0 1 0,-0.03125 l 0,-3.53125 a 0.10292193,0.10292193 0 0 1 0,-0.03125 c 2.09e-4,-0.0033 -1.39e-4,-0.02792 0,-0.03125 -1.39e-4,-0.0033 2.09e-4,-0.02792 0,-0.03125 a 0.10292193,0.10292193 0 0 1 0,-0.03125 l 0,-0.65625 c 0,-1.24962 -1.05983,-2.225263 -2.28125,-2.21875 a 0.10292193,0.10292193 0 0 1 -0.03125,0 0.10292193,0.10292193 0 0 1 -0.03125,0 0.10292193,0.10292193 0 0 1 -0.03125,-0.03125 0.10292193,0.10292193 0 0 1 0,-0.03125 C 23.403035,9.7938819 22.402184,9.0625 21.21875,9.0625 c -0.566599,0 -1.090579,0.2238397 -1.5625,0.53125 a 0.10292193,0.10292193 0 0 1 -0.03125,0 0.10292193,0.10292193 0 0 1 -0.03125,0 0.10292193,0.10292193 0 0 1 -0.03125,0 0.10292193,0.10292193 0 0 1 -0.03125,0 0.10292193,0.10292193 0 0 1 0,-0.03125 0.10292193,0.10292193 0 0 1 -0.03125,0 C 18.886942,8.7319868 17.949125,8.1875 16.875,8.1875 z m 0,1.5625 c 0.832783,0 1.544393,0.568816 1.71875,1.375 0.0657,0.299297 0.285828,0.577712 0.625,0.625 0.0033,6.9e-5 0.02793,0 0.03125,0 0.342453,0.0422 0.655309,-0.140583 0.8125,-0.4375 0.232552,-0.439358 0.654996,-0.6875 1.15625,-0.6875 0.694495,0 1.260835,0.55336 1.3125,1.25 0.01826,0.252573 0.205455,0.446764 0.40625,0.5625 0.211952,0.119862 0.475483,0.183317 0.71875,0.0625 0.08721,-0.04194 0.19501,-0.0625 0.3125,-0.0625 0.357643,0 0.605031,0.232666 0.65625,0.5625 a 0.10292193,0.10292193 0 0 1 0,0.03125 0.10292193,0.10292193 0 0 1 0,0.03125 0.10292193,0.10292193 0 0 1 0,0.03125 0.10292193,0.10292193 0 0 1 -0.03125,0 0.10292193,0.10292193 0 0 1 0,0.03125 0.10292193,0.10292193 0 0 1 -0.03125,0 0.10292193,0.10292193 0 0 1 -0.03125,0 l -12.03125,0 a 0.10292193,0.10292193 0 0 1 -0.03125,0 0.10292193,0.10292193 0 0 1 -0.03125,0 0.10292193,0.10292193 0 0 1 -0.03125,-0.03125 0.10292193,0.10292193 0 0 1 0,-0.03125 0.10292193,0.10292193 0 0 1 0,-0.03125 0.10292193,0.10292193 0 0 1 0,-0.03125 c 0.05955,-0.351757 0.143039,-0.640166 0.3125,-0.84375 0.221214,-0.265756 0.534348,-0.40625 0.96875,-0.40625 0.122936,0 0.251431,0.01152 0.40625,0.0625 0.248094,0.08032 0.4625,0.02095 0.65625,-0.09375 0.201786,-0.122048 0.34193,-0.334205 0.375,-0.53125 0.14641,-0.854203 0.878253,-1.4375 1.75,-1.4375 z m -4.53125,4.9375 a 0.10292193,0.10292193 0 0 1 0.03125,0 0.10292193,0.10292193 0 0 1 0.03125,0 l 12.15625,0 a 0.10292193,0.10292193 0 0 1 0.03125,0 0.10292193,0.10292193 0 0 1 0.03125,0 0.10292193,0.10292193 0 0 1 0.03125,0.03125 0.10292193,0.10292193 0 0 1 0,0.03125 0.10292193,0.10292193 0 0 1 0,0.03125 l 0,15.375 a 0.10292193,0.10292193 0 0 1 0,0.03125 0.10292193,0.10292193 0 0 1 0,0.03125 0.10292193,0.10292193 0 0 1 -0.03125,0.03125 0.10292193,0.10292193 0 0 1 -0.03125,0 0.10292193,0.10292193 0 0 1 -0.03125,0 l -12.15625,0 a 0.10292193,0.10292193 0 0 1 -0.03125,0 0.10292193,0.10292193 0 0 1 -0.03125,0 0.10292193,0.10292193 0 0 1 -0.03125,-0.03125 0.10292193,0.10292193 0 0 1 0,-0.03125 0.10292193,0.10292193 0 0 1 0,-0.03125 l 0,-15.375 a 0.10292193,0.10292193 0 0 1 0,-0.03125 0.10292193,0.10292193 0 0 1 0,-0.03125 0.10292193,0.10292193 0 0 1 0.03125,-0.03125 z M 26.25,19.09375 a 0.10292193,0.10292193 0 0 1 0.03125,0 0.10292193,0.10292193 0 0 1 0.03125,0 l 1.25,0 a 0.10292193,0.10292193 0 0 1 0.03125,0 0.10292193,0.10292193 0 0 1 0.03125,0 0.10292193,0.10292193 0 0 1 0,0.03125 0.10292193,0.10292193 0 0 1 0.03125,0 0.10292193,0.10292193 0 0 1 0,0.03125 0.10292193,0.10292193 0 0 1 0,0.03125 0.10292193,0.10292193 0 0 1 0,0.03125 0.10292193,0.10292193 0 0 1 0,0.03125 c 0.02702,0.07079 0.03125,0.146741 0.03125,0.25 l 0,5.84375 c 0,0.14312 -0.0115,0.263035 -0.0625,0.34375 -0.0056,0.0089 -0.02548,-0.0071 -0.03125,0 -0.0029,0.0036 0.0028,0.02814 0,0.03125 0,0 -0.02408,0.0044 -0.03125,0 1.15e-4,-1.16e-4 0.0013,0.03023 0,0.03125 l -1.25,0 a 0.10292193,0.10292193 0 0 1 -0.03125,0 0.10292193,0.10292193 0 0 1 -0.03125,0 0.10292193,0.10292193 0 0 1 -0.03125,-0.03125 0.10292193,0.10292193 0 0 1 0,-0.03125 0.10292193,0.10292193 0 0 1 0,-0.03125 l 0,-6.46875 a 0.10292193,0.10292193 0 0 1 0,-0.03125 0.10292193,0.10292193 0 0 1 0,-0.03125 0.10292193,0.10292193 0 0 1 0.03125,-0.03125 z m 1.34375,6.59375 c 0,0 0,-0.03125 0,-0.03125 0,0 0,-0.03125 0,-0.03125 0,0 -0.03125,-0.03125 -0.03125,-0.03125 l 0,0.09375 c 0.01283,0.0019 0.03125,0 0.03125,0 z"
     transform="matrix(0.65231366,0,0,0.65231366,19.723628,17.620111)"
     inkscape:export-filename="/Users/sascha/Entwicklung/brewy/icon.png"
     inkscape:export-xdpi="886"
     inkscape:export-ydpi="886" /><path
     style="color:#000000;fill:none;stroke:#f9a825;stroke-width:1.29999995;stroke-opacity:0.00392157;marker:none;visibility:visible;display:inline;overflow:visible;enable-background:accumulate"
     d="m 18.177,38.944688 c 4.107748,7.730505 13.606017,10.718775 21.214982,6.674493 7.608958,-4.044282 10.447252,-13.589634 6.339503,-21.320137"
     id="path3793-0-2-1"
     inkscape:connector-curvature="0"
     sodipodi:nodetypes="csc"
     inkscape:export-filename="/Users/sascha/Entwicklung/brewy/icon.png"
     inkscape:export-xdpi="886"
     inkscape:export-ydpi="886" /><rect
     style="color:#000000;fill:#8d99b6;fill-opacity:0;fill-rule:nonzero;stroke:none;stroke-width:2;marker:none;visibility:visible;display:inline;overflow:visible;enable-background:accumulate"
     id="rect4386"
     width="50"
     height="50"
     x="7"
     y="7"
     inkscape:export-filename="/Users/sascha/Entwicklung/brewy/icon.png"
     inkscape:export-xdpi="921.59998"
     inkscape:export-ydpi="921.59998" /></svg>